<svg width="190" height="444" viewBox="0 0 190 444" fill="none" xmlns="http://www.w3.org/2000/svg">
<g opacity="0.8">
<rect width="38.5017" height="38.3801" rx="10" transform="matrix(-0.707107 0.707107 0.707107 0.707107 190.225 196)" fill="white"/>
<path d="M62.0381 134L121.832 134C124.499 134 127.056 135.066 128.934 136.96L174.992 183.429C178.867 187.339 178.853 193.647 174.96 197.54L159.429 213.071C157.554 214.946 155.01 216 152.358 216L123.66 216C120.997 216 118.444 214.938 116.567 213.049L54.9455 151.049C48.6755 144.741 53.1438 134 62.0381 134Z" fill="white"/>
<path d="M62.5381 310L122.332 310C124.999 310 127.556 308.934 129.434 307.04L175.492 260.571C179.367 256.661 179.353 250.353 175.46 246.46L159.929 230.929C158.054 229.054 155.51 228 152.858 228L124.16 228C121.497 228 118.944 229.062 117.067 230.951L55.4454 292.951C49.1755 299.259 53.6438 310 62.5381 310Z" fill="white"/>
<path d="M134 62.5381V122.332C134 124.999 135.066 127.556 136.96 129.434L183.429 175.492C187.339 179.367 193.647 179.353 197.54 175.46L213.071 159.929C214.946 158.054 216 155.51 216 152.858V124.16C216 121.497 214.938 118.944 213.049 117.067L151.049 55.4454C144.741 49.1755 134 53.6438 134 62.5381Z" fill="white"/>
<path d="M134 380.962L134 321.168C134 318.501 135.066 315.944 136.96 314.066L183.429 268.008C187.339 264.133 193.647 264.147 197.54 268.04L213.071 283.571C214.946 285.446 216 287.99 216 290.642L216 319.34C216 322.003 214.938 324.555 213.049 326.433L151.049 388.055C144.741 394.325 134 389.856 134 380.962Z" fill="white"/>
</g>
</svg>
