<svg width="49" height="105" viewBox="0 0 49 105" fill="none" xmlns="http://www.w3.org/2000/svg">
<path d="M24.9715 105L0.614304 105C-2.05425 105 -4.61211 103.933 -6.49012 102.038L-29.9976 78.3067C-33.8706 74.3969 -33.8566 68.0926 -29.9663 64.2001L-24.7001 58.9309C-22.8246 57.0543 -20.2802 56 -17.627 56L-3.83534 56C-1.17159 56 1.38207 57.0628 3.25932 58.9526L32.0662 87.9526C38.3334 94.2618 33.8644 105 24.9715 105Z" fill="#DDE9EA"/>
<path d="M24.9715 -2.70886e-06L0.614304 -1.64417e-06C-2.05425 -1.52753e-06 -4.61211 1.06659 -6.49012 2.96244L-29.9976 26.6933C-33.8706 30.6031 -33.8566 36.9074 -29.9663 40.7999L-24.7001 46.0691C-22.8246 47.9457 -20.2802 49 -17.627 49L-3.83533 49C-1.17159 49 1.38207 47.9372 3.25932 46.0474L32.0662 17.0474C38.3334 10.7382 33.8644 -3.09758e-06 24.9715 -2.70886e-06Z" fill="#DDE9EA"/>
</svg>
