<svg width="118" height="444" viewBox="0 0 118 444" fill="ffffff" xmlns="http://www.w3.org/2000/svg">
<g opacity="0.8">
<path d="M54.4619 309.5L-5.33181 309.5C-7.99937 309.5 -10.5564 308.434 -12.4342 306.54L-58.4916 260.071C-62.3673 256.161 -62.3533 249.853 -58.4603 245.96L-42.9289 230.429C-41.0536 228.554 -38.51 227.5 -35.8579 227.5L-7.16006 227.5C-4.4973 227.5 -1.9445 228.562 -0.0674092 230.451L61.5545 292.451C67.8245 298.759 63.3562 309.5 54.4619 309.5Z" fill="#DDE9EA"/>
<path d="M53.9619 133.5L-5.83182 133.5C-8.49939 133.5 -11.0564 134.566 -12.9342 136.46L-58.9917 182.929C-62.8673 186.839 -62.8533 193.147 -58.9603 197.04L-43.4289 212.571C-41.5536 214.446 -39.01 215.5 -36.3579 215.5L-7.66007 215.5C-4.99731 215.5 -2.44451 214.438 -0.567418 212.549L61.0545 150.549C67.3245 144.241 62.8562 133.5 53.9619 133.5Z" fill="#DDE9EA"/>
</g>
</svg>
