<svg width="220" height="444" viewBox="0 0 220 444" fill="none" xmlns="http://www.w3.org/2000/svg">
<g opacity="0.8">
<rect x="-1.77744" y="164" width="38.5017" height="38.3801" rx="10" transform="rotate(45 -1.77744 164)" fill="#DDE9EA"/>
<rect x="29.2752" y="196" width="38.5017" height="38.3801" rx="10" transform="rotate(45 29.2752 196)" fill="#DDE9EA"/>
<rect x="-1.72483" y="228" width="38.5017" height="38.3801" rx="10" transform="rotate(45 -1.72483 228)" fill="#DDE9EA"/>
<path d="M157.462 134L97.6682 134C95.0006 134 92.4436 135.066 90.5658 136.96L44.5084 183.429C40.6327 187.339 40.6468 193.647 44.5397 197.54L60.0711 213.071C61.9465 214.946 64.49 216 67.1422 216L95.84 216C98.5027 216 101.056 214.938 102.933 213.049L164.555 151.049C170.825 144.741 166.356 134 157.462 134Z" fill="#DDE9EA"/>
<path d="M156.962 310L97.1682 310C94.5006 310 91.9436 308.934 90.0658 307.04L44.0084 260.571C40.1327 256.661 40.1467 250.353 44.0397 246.46L59.5711 230.929C61.4465 229.054 63.99 228 66.6422 228L95.34 228C98.0027 228 100.556 229.062 102.433 230.951L164.055 292.951C170.325 299.259 165.856 310 156.962 310Z" fill="#DDE9EA"/>
<path d="M85.5 62.5381V122.332C85.5 124.999 84.4342 127.556 82.5396 129.434L36.0709 175.492C32.1607 179.367 25.8533 179.353 21.9603 175.46L6.42896 159.929C4.55359 158.054 3.50002 155.51 3.50002 152.858V124.16C3.50002 121.497 4.562 118.944 6.45061 117.067L68.4506 55.4454C74.759 49.1755 85.5 53.6438 85.5 62.5381Z" fill="#DDE9EA"/>
<path d="M85.5 380.962L85.5 321.168C85.5 318.501 84.4342 315.944 82.5396 314.066L36.0709 268.008C32.1607 264.133 25.8533 264.147 21.9603 268.04L6.42895 283.571C4.55358 285.446 3.50002 287.99 3.50002 290.642L3.50001 319.34C3.50001 322.003 4.56199 324.555 6.45061 326.433L68.4506 388.055C74.759 394.325 85.5 389.856 85.5 380.962Z" fill="#DDE9EA"/>
</g>
</svg>
