<svg width="24" height="24" viewBox="0 0 24 24" fill="none" xmlns="http://www.w3.org/2000/svg">
<path d="M14 17.9999C14.2652 17.9999 14.5195 17.8945 14.7071 17.707C14.8946 17.5195 15 17.2651 15 16.9999V14.9999C15 14.7347 14.8946 14.4803 14.7071 14.2928C14.5195 14.1053 14.2652 13.9999 14 13.9999C13.7348 13.9999 13.4804 14.1053 13.2929 14.2928C13.1053 14.4803 13 14.7347 13 14.9999V16.9999C13 17.2651 13.1053 17.5195 13.2929 17.707C13.4804 17.8945 13.7348 17.9999 14 17.9999ZM9.99998 17.9999C10.2652 17.9999 10.5195 17.8945 10.7071 17.707C10.8946 17.5195 11 17.2651 11 16.9999V14.9999C11 14.7347 10.8946 14.4803 10.7071 14.2928C10.5195 14.1053 10.2652 13.9999 9.99998 13.9999C9.73476 13.9999 9.48041 14.1053 9.29287 14.2928C9.10533 14.4803 8.99998 14.7347 8.99998 14.9999V16.9999C8.99998 17.2651 9.10533 17.5195 9.29287 17.707C9.48041 17.8945 9.73476 17.9999 9.99998 17.9999ZM19 5.99991H17.62L15.89 2.5499C15.8371 2.42296 15.7586 2.30828 15.6594 2.21303C15.5603 2.11779 15.4425 2.04402 15.3135 1.99635C15.1845 1.94867 15.0471 1.92811 14.9098 1.93595C14.7725 1.94379 14.6383 1.97986 14.5156 2.04191C14.3929 2.10396 14.2843 2.19065 14.1966 2.29657C14.1089 2.40249 14.044 2.52536 14.0059 2.6575C13.9678 2.78964 13.9574 2.92821 13.9753 3.06455C13.9932 3.20089 14.0391 3.33208 14.11 3.44991L15.38 5.99991H8.61998L9.88998 3.44991C9.98704 3.21681 9.99234 2.95563 9.9048 2.71879C9.81726 2.48196 9.64337 2.287 9.41804 2.17307C9.19271 2.05914 8.93262 2.03467 8.68999 2.10456C8.44736 2.17446 8.24016 2.33356 8.10998 2.5499L6.37998 5.99991H4.99998C4.29316 6.01066 3.61285 6.27065 3.07903 6.73404C2.5452 7.19742 2.19215 7.83443 2.08215 8.53271C1.97214 9.23099 2.11225 9.94569 2.47776 10.5508C2.84327 11.1558 3.4107 11.6124 4.07998 11.8399L4.81998 19.2999C4.8946 20.0425 5.24332 20.7306 5.79805 21.2298C6.35278 21.7291 7.07368 22.0036 7.81998 21.9999H16.2C16.9463 22.0036 17.6672 21.7291 18.2219 21.2298C18.7766 20.7306 19.1254 20.0425 19.2 19.2999L19.94 11.8399C20.6107 11.6117 21.179 11.1535 21.5443 10.5464C21.9095 9.9393 22.0481 9.22254 21.9355 8.52305C21.823 7.82356 21.4664 7.18649 20.9291 6.72468C20.3918 6.26287 19.7084 6.00612 19 5.99991V5.99991ZM17.19 19.0999C17.1651 19.3474 17.0489 19.5768 16.864 19.7432C16.679 19.9096 16.4387 20.0012 16.19 19.9999H7.80998C7.56121 20.0012 7.32091 19.9096 7.136 19.7432C6.95109 19.5768 6.83485 19.3474 6.80998 19.0999L6.09998 11.9999H17.9L17.19 19.0999ZM19 9.9999H4.99998C4.73476 9.9999 4.48041 9.89455 4.29287 9.70701C4.10533 9.51948 3.99998 9.26512 3.99998 8.99991C3.99998 8.73469 4.10533 8.48033 4.29287 8.2928C4.48041 8.10526 4.73476 7.99991 4.99998 7.99991H19C19.2652 7.99991 19.5195 8.10526 19.7071 8.2928C19.8946 8.48033 20 8.73469 20 8.99991C20 9.26512 19.8946 9.51948 19.7071 9.70701C19.5195 9.89455 19.2652 9.9999 19 9.9999Z" fill="#2B3F4A"/>
</svg>
