<svg width="24" height="24" viewBox="0 0 24 24" fill="none" xmlns="http://www.w3.org/2000/svg">
<circle cx="12" cy="12" r="12" fill="white"/>
<path d="M12.0002 4C10.7731 3.99995 9.5624 4.28219 8.46182 4.8249C7.36125 5.36762 6.40027 6.15624 5.65324 7.12978C4.9062 8.10331 4.39313 9.23566 4.15373 10.4392C3.91432 11.6428 3.95499 12.8853 4.27259 14.0706C4.5902 15.2559 5.17622 16.3523 5.98532 17.2749C6.79442 18.1975 7.80491 18.9215 8.93862 19.3911C10.0723 19.8607 11.2989 20.0632 12.5233 19.9829C13.7478 19.9025 14.9374 19.5416 16.0001 18.928C16.0957 18.878 16.1802 18.8092 16.2485 18.7256C16.3168 18.6421 16.3675 18.5457 16.3976 18.442C16.4276 18.3384 16.4364 18.2298 16.4234 18.1227C16.4104 18.0156 16.3759 17.9122 16.3219 17.8188C16.2679 17.7254 16.1955 17.6438 16.1092 17.5791C16.0229 17.5144 15.9244 17.4678 15.8196 17.4421C15.7148 17.4164 15.6059 17.4122 15.4994 17.4297C15.393 17.4472 15.2912 17.4861 15.2001 17.544C13.9801 18.2484 12.5617 18.5306 11.165 18.3467C9.76828 18.1629 8.47125 17.5233 7.47505 16.5272C6.47884 15.5311 5.83914 14.2341 5.65514 12.8373C5.47114 11.4406 5.75313 10.0222 6.45738 8.80206C7.16162 7.58193 8.24877 6.62826 9.55023 6.08895C10.8517 5.54965 12.2947 5.45484 13.6555 5.81923C15.0164 6.18363 16.2189 6.98686 17.0768 8.10437C17.9346 9.22187 18.3997 10.5912 18.4 12V12.6C18.4 12.9713 18.2525 13.3274 17.99 13.5899C17.7274 13.8525 17.3714 14 17.0001 14C16.6288 14 16.2727 13.8525 16.0101 13.5899C15.7476 13.3274 15.6001 12.9713 15.6001 12.6V9.2C15.6001 8.98783 15.5158 8.78434 15.3658 8.63431C15.2158 8.48429 15.0123 8.4 14.8001 8.4C14.6141 8.39586 14.4324 8.4567 14.2864 8.57206C14.1404 8.68741 14.0392 8.85006 14.0001 9.032C13.4121 8.62526 12.7152 8.40504 12.0002 8.4C11.3979 8.3928 10.8035 8.53682 10.2713 8.81888C9.73914 9.10093 9.28624 9.51201 8.95409 10.0145C8.62194 10.5169 8.42116 11.0947 8.37014 11.6948C8.31912 12.2949 8.4195 12.8983 8.66206 13.4496C8.90463 14.0009 9.28164 14.4825 9.75857 14.8504C10.2355 15.2182 10.7971 15.4605 11.3919 15.5551C11.9867 15.6497 12.5958 15.5935 13.1633 15.3917C13.7308 15.1899 14.2385 14.8489 14.6401 14.4C15.0202 14.8923 15.5443 15.2538 16.1394 15.4344C16.7345 15.615 17.3711 15.6057 17.9607 15.4077C18.5502 15.2097 19.0635 14.8329 19.4289 14.3297C19.7944 13.8265 19.994 13.2219 20 12.6V12C20 10.9494 19.7931 9.90914 19.3911 8.93853C18.989 7.96793 18.3998 7.08601 17.6569 6.34315C16.9141 5.60028 16.0322 5.011 15.0616 4.60896C14.091 4.20693 13.0507 4 12.0002 4ZM12.0002 14C11.6046 14 11.218 13.8827 10.8891 13.6629C10.5602 13.4432 10.3038 13.1308 10.1525 12.7654C10.0011 12.3999 9.96148 11.9978 10.0386 11.6098C10.1158 11.2219 10.3063 10.8655 10.586 10.5858C10.8657 10.3061 11.222 10.1156 11.61 10.0384C11.998 9.96126 12.4001 10.0009 12.7655 10.1522C13.131 10.3036 13.4433 10.56 13.6631 10.8889C13.8828 11.2178 14.0001 11.6044 14.0001 12C14.0001 12.5304 13.7894 13.0391 13.4144 13.4142C13.0393 13.7893 12.5306 14 12.0002 14Z" fill="#2B3F4A"/>
</svg>
