<svg width="24" height="24" viewBox="0 0 24 24" fill="none" xmlns="http://www.w3.org/2000/svg">
<circle cx="12" cy="12" r="12" fill="white"/>
<path d="M16.5126 12.6191C16.3802 12.6191 16.2417 12.5768 16.1092 12.5466C15.8409 12.4873 15.5773 12.4086 15.3204 12.3111C15.041 12.2092 14.7339 12.2145 14.4583 12.326C14.1826 12.4375 13.9577 12.6473 13.827 12.915L13.6945 13.1868C13.108 12.8596 12.5691 12.4532 12.0928 11.979C11.6199 11.5013 11.2147 10.9608 10.8885 10.3725L11.1414 10.2034C11.4083 10.0723 11.6175 9.84685 11.7287 9.57035C11.8399 9.29386 11.8451 8.9859 11.7435 8.70573C11.6479 8.44751 11.5695 8.18322 11.5087 7.9146C11.4786 7.78174 11.4545 7.64284 11.4364 7.50394C11.3633 7.07856 11.1411 6.69333 10.8099 6.41764C10.4788 6.14195 10.0603 5.99392 9.62993 6.00019H7.82345C7.56393 5.99775 7.30694 6.05141 7.06997 6.15753C6.83299 6.26365 6.6216 6.41973 6.45017 6.61515C6.27875 6.81057 6.15132 7.04073 6.07657 7.28998C6.00181 7.53923 5.98148 7.80171 6.01696 8.05954C6.33776 10.5896 7.48987 12.9403 9.29131 14.7404C11.0927 16.5406 13.4408 17.6875 15.9647 18H16.1935C16.6375 18.0007 17.0663 17.8373 17.3978 17.541C17.5883 17.3701 17.7405 17.1607 17.8443 16.9264C17.9481 16.6922 18.0012 16.4385 18 16.1822V14.3705C17.9926 13.951 17.8403 13.5471 17.569 13.2277C17.2978 12.9083 16.9244 12.6932 16.5126 12.6191V12.6191ZM16.8137 16.2426C16.8136 16.3283 16.7953 16.4131 16.76 16.4912C16.7247 16.5693 16.6732 16.6389 16.609 16.6955C16.5419 16.7541 16.4632 16.7979 16.3782 16.8239C16.2931 16.8499 16.2035 16.8576 16.1152 16.8465C13.8601 16.5565 11.7653 15.5218 10.1615 13.9056C8.5576 12.2894 7.53586 10.1837 7.25741 7.92064C7.24783 7.83218 7.25623 7.74269 7.2821 7.65757C7.30798 7.57246 7.35079 7.49349 7.40796 7.42543C7.46438 7.36101 7.53384 7.30939 7.61171 7.27398C7.68958 7.23858 7.77408 7.22021 7.85958 7.2201H9.66606C9.80609 7.21698 9.94283 7.26291 10.0527 7.34999C10.1626 7.43707 10.2388 7.55985 10.2682 7.69719C10.2923 7.86227 10.3224 8.02532 10.3585 8.18637C10.4281 8.50472 10.5207 8.81757 10.6355 9.12244L9.79252 9.51498C9.72043 9.54815 9.6556 9.59527 9.60173 9.65364C9.54785 9.71201 9.50601 9.78047 9.47859 9.8551C9.45117 9.92974 9.43873 10.0091 9.44197 10.0885C9.4452 10.168 9.46406 10.246 9.49746 10.3182C10.3641 12.1799 11.8563 13.6764 13.7126 14.5456C13.8592 14.606 14.0236 14.606 14.1702 14.5456C14.2453 14.5187 14.3143 14.477 14.3733 14.4231C14.4322 14.3692 14.4798 14.3041 14.5135 14.2316L14.8868 13.3861C15.1981 13.4977 15.5158 13.5905 15.8382 13.6639C15.9988 13.7001 16.1614 13.7303 16.326 13.7545C16.4629 13.7839 16.5853 13.8604 16.6722 13.9706C16.759 14.0808 16.8048 14.2179 16.8017 14.3584L16.8137 16.2426Z" fill="#2B3F4A"/>
</svg>
