<svg width="24" height="24" viewBox="0 0 24 24" fill="none" xmlns="http://www.w3.org/2000/svg">
<rect width="24" height="24" rx="12" fill="white"/>
<path d="M12 3.6665C10.3518 3.6665 8.74062 4.15525 7.37021 5.07092C5.9998 5.9866 4.9317 7.28809 4.30097 8.81081C3.67024 10.3335 3.50521 12.0091 3.82675 13.6256C4.1483 15.2421 4.94197 16.727 6.10741 17.8924C7.27284 19.0578 8.7577 19.8515 10.3742 20.173C11.9907 20.4946 13.6663 20.3296 15.189 19.6988C16.7117 19.0681 18.0132 18 18.9289 16.6296C19.8446 15.2592 20.3333 13.648 20.3333 11.9998C20.3333 10.9055 20.1177 9.82186 19.699 8.81081C19.2802 7.79976 18.6663 6.8811 17.8925 6.10728C17.1187 5.33346 16.2 4.71963 15.189 4.30084C14.1779 3.88205 13.0943 3.6665 12 3.6665ZM12 18.6665C10.6814 18.6665 9.39249 18.2755 8.29616 17.543C7.19983 16.8104 6.34535 15.7692 5.84077 14.5511C5.33618 13.3329 5.20416 11.9924 5.46139 10.6992C5.71863 9.40603 6.35357 8.21814 7.28592 7.28579C8.21827 6.35344 9.40615 5.7185 10.6994 5.46127C11.9926 5.20403 13.333 5.33606 14.5512 5.84064C15.7694 6.34522 16.8105 7.19971 17.5431 8.29604C18.2756 9.39236 18.6666 10.6813 18.6666 11.9998C18.6666 13.7679 17.9643 15.4636 16.714 16.7139C15.4638 17.9641 13.7681 18.6665 12 18.6665ZM13.75 10.0248L12.8333 10.5582V7.83317C12.8333 7.61216 12.7455 7.4002 12.5892 7.24392C12.4329 7.08764 12.221 6.99984 12 6.99984C11.7789 6.99984 11.567 7.08764 11.4107 7.24392C11.2544 7.4002 11.1666 7.61216 11.1666 7.83317V11.9998C11.1666 11.9998 11.1666 11.9998 11.1666 12.0498C11.1627 12.1053 11.1627 12.161 11.1666 12.2165C11.1795 12.2677 11.1962 12.3178 11.2166 12.3665C11.2166 12.3665 11.2166 12.3665 11.2166 12.4165C11.2564 12.4756 11.301 12.5314 11.35 12.5832C11.4173 12.6499 11.4964 12.7036 11.5833 12.7415H11.65C11.7585 12.7973 11.878 12.8286 12 12.8332C12.0971 12.8304 12.193 12.8107 12.2833 12.7748H12.3583H12.4166L14.5833 11.5248C14.7756 11.4143 14.9161 11.232 14.9739 11.0179C15.0317 10.8038 15.0021 10.5755 14.8916 10.3832C14.7811 10.1909 14.5988 10.0504 14.3847 9.99256C14.1706 9.93473 13.9422 9.96433 13.75 10.0748V10.0248Z" fill="#2B3F4A"/>
</svg>
