<svg width="24" height="24" viewBox="0 0 24 24" fill="none" xmlns="http://www.w3.org/2000/svg">
<rect width="24" height="24" rx="12" fill="white"/>
<path d="M16.6099 4.4035C13.8874 3.8655 11.0602 3.8655 8.3377 4.4035C7.13351 4.6725 5.61518 6.17891 5.3534 7.36251C4.8822 9.67592 4.8822 12.0431 5.3534 14.3565C5.66754 15.5401 7.18586 17.0465 8.3377 17.3155C8.39005 17.3155 8.44241 17.3693 8.44241 17.4231V20.8126C8.44241 20.974 8.65183 21.0816 8.75655 20.9202L10.3272 19.2524C10.3272 19.2524 11.5838 17.9073 11.7932 17.6921C11.7932 17.6921 11.8456 17.6383 11.8979 17.6383C13.4686 17.6921 15.0916 17.5307 16.6623 17.2617C17.8665 16.9927 19.3848 15.4863 19.6466 14.3027C20.1178 11.9893 20.1178 9.62212 19.6466 7.30871C19.3325 6.17891 17.8141 4.6725 16.6099 4.4035ZM16.6623 14.5179C16.4005 15.0559 16.0864 15.4863 15.5628 15.7553C15.4058 15.8091 15.2487 15.8629 15.0916 15.9167C14.8822 15.8629 14.7251 15.8091 14.5681 15.7553C12.8927 15.0559 11.322 14.0875 10.0654 12.6887C9.38482 11.8817 8.8089 10.9671 8.3377 9.99872C8.12827 9.51452 7.91885 9.08412 7.76178 8.59992C7.60471 8.16951 7.86649 7.73911 8.12827 7.41631C8.39005 7.09351 8.70419 6.87831 9.07068 6.71691C9.33246 6.55551 9.59424 6.66311 9.80367 6.87831C10.2225 7.41631 10.6414 7.95431 10.9555 8.54612C11.1649 8.92272 11.1126 9.35312 10.7461 9.62212C10.6414 9.67592 10.589 9.72972 10.4843 9.83732C10.4319 9.89112 10.3272 9.94492 10.2749 10.0525C10.1702 10.2139 10.1702 10.3753 10.2225 10.5367C10.6414 11.7741 11.4267 12.7425 12.6309 13.2805C12.8403 13.3881 12.9974 13.4419 13.2592 13.4419C13.6257 13.3881 13.7827 12.9577 14.0445 12.7425C14.3063 12.5273 14.6204 12.5273 14.9346 12.6887C15.1963 12.8501 15.4581 13.0653 15.7722 13.2805C16.034 13.4957 16.2958 13.6571 16.5576 13.8723C16.7147 13.9799 16.767 14.2489 16.6623 14.5179ZM14.4633 10.4829C14.3586 10.4829 14.411 10.4829 14.4633 10.4829C14.2539 10.4829 14.2016 10.3753 14.1492 10.2139C14.1492 10.1063 14.1492 9.94492 14.0969 9.83732C14.0445 9.62212 13.9398 9.40692 13.7304 9.24552C13.6257 9.19172 13.5209 9.13792 13.4162 9.08412C13.2592 9.03032 13.1545 9.03032 12.9974 9.03032C12.8403 8.97652 12.788 8.86892 12.788 8.70752C12.788 8.59992 12.945 8.49232 13.0497 8.49232C13.8874 8.54612 14.5157 9.03032 14.6204 10.0525C14.6204 10.1063 14.6204 10.2139 14.6204 10.2677C14.6204 10.3753 14.5681 10.4829 14.4633 10.4829ZM13.9398 8.11571C13.678 8.00811 13.4162 7.90051 13.1021 7.84671C12.9974 7.84671 12.8403 7.79291 12.7356 7.79291C12.5785 7.79291 12.4738 7.68531 12.5262 7.52391C12.5262 7.36251 12.6309 7.25491 12.788 7.30871C13.3115 7.36251 13.7827 7.47011 14.2539 7.68531C15.1963 8.16951 15.7199 8.97652 15.877 10.0525C15.877 10.1063 15.877 10.1601 15.877 10.2139C15.877 10.3215 15.877 10.4291 15.877 10.5905C15.877 10.6443 15.877 10.6981 15.877 10.7519C15.8246 10.9671 15.4581 11.0209 15.4058 10.7519C15.4058 10.6981 15.3534 10.5905 15.3534 10.5367C15.3534 10.0525 15.2487 9.56832 15.0393 9.13792C14.7251 8.65372 14.3586 8.33091 13.9398 8.11571ZM16.767 11.3437C16.6099 11.3437 16.5052 11.1823 16.5052 11.0209C16.5052 10.6981 16.4529 10.3753 16.4005 10.0525C16.1911 8.33091 14.8298 6.93211 13.2068 6.66311C12.945 6.60931 12.6832 6.60931 12.4738 6.55551C12.3168 6.55551 12.1073 6.55551 12.055 6.34031C12.0026 6.17891 12.1597 6.01751 12.3168 6.01751C12.3691 6.01751 12.4215 6.01751 12.4215 6.01751C14.5681 6.07131 12.5262 6.01751 12.4215 6.01751C14.6204 6.07131 16.4529 7.57771 16.8194 9.83732C16.8717 10.2139 16.9241 10.5905 16.9241 11.0209C17.0288 11.1823 16.9241 11.3437 16.767 11.3437Z" fill="#2B3F4A"/>
</svg>
