<svg width="21" height="13" viewBox="0 0 21 13" fill="none" xmlns="http://www.w3.org/2000/svg">
<path d="M6.00002 3.00002H20C20.6 3.00002 21 2.60002 21 2.00002C21 1.40002 20.6 1.00002 20 1.00002H6.00002C5.40002 1.00002 5.00002 1.40002 5.00002 2.00002C5.00002 2.60002 5.40002 3.00002 6.00002 3.00002ZM20 6.00002H6.00002C5.40002 6.00002 5.00002 6.40002 5.00002 7.00002C5.00002 7.60002 5.40002 8.00002 6.00002 8.00002H20C20.6 8.00002 21 7.60002 21 7.00002C21 6.40002 20.6 6.00002 20 6.00002ZM20 11H6.00002C5.40002 11 5.00002 11.4 5.00002 12C5.00002 12.6 5.40002 13 6.00002 13H20C20.6 13 21 12.6 21 12C21 11.4 20.6 11 20 11ZM2.70002 1.30002C2.60002 1.20002 2.50002 1.10002 2.40002 1.10002C2.00002 0.900023 1.60002 1.00002 1.30002 1.30002C1.20002 1.40002 1.10002 1.50002 1.10002 1.60002C1.00002 1.90002 1.00002 2.10002 1.10002 2.40002C1.20002 2.50002 1.20002 2.60002 1.30002 2.70002C1.40002 2.80002 1.50002 2.90002 1.60002 2.90002C1.70002 3.00002 1.90002 3.00002 2.00002 3.00002C2.30002 3.00002 2.50002 2.90002 2.70002 2.70002C2.80002 2.60002 2.90002 2.50002 2.90002 2.40002C3.00002 2.10002 3.00002 1.90002 2.90002 1.60002C2.90002 1.50002 2.80002 1.40002 2.70002 1.30002ZM2.70002 6.30002C2.40002 6.00002 2.00002 5.90002 1.60002 6.10002C1.50002 6.20002 1.40002 6.20002 1.30002 6.30002C1.20002 6.40002 1.10002 6.50002 1.10002 6.60002C1.00002 6.80002 1.00002 7.10002 1.10002 7.40002C1.20002 7.50002 1.20002 7.60002 1.30002 7.70002C1.40002 7.80002 1.50002 7.90002 1.60002 7.90002C1.70002 8.00002 1.90002 8.00002 2.00002 8.00002C2.10002 8.00002 2.30002 8.00002 2.40002 7.90002C2.50002 7.80002 2.60002 7.80002 2.70002 7.70002C2.80002 7.60002 2.90002 7.50002 2.90002 7.40002C3.00002 7.20002 3.00002 6.90002 2.90002 6.60002C2.90002 6.50002 2.80002 6.40002 2.70002 6.30002ZM2.70002 11.3C2.60002 11.2 2.50002 11.1 2.40002 11.1C2.20002 11 1.90002 11 1.60002 11.1C1.50002 11.1 1.40002 11.2 1.30002 11.3C1.20002 11.4 1.10002 11.5 1.10002 11.6C0.900024 12 1.00002 12.4 1.30002 12.7C1.40002 12.8 1.50002 12.9 1.60002 12.9C1.70002 13 1.90002 13 2.00002 13C2.10002 13 2.30002 13 2.40002 12.9C2.50002 12.8 2.60002 12.8 2.70002 12.7C3.00002 12.4 3.10002 12 2.90002 11.6C2.90002 11.5 2.80002 11.4 2.70002 11.3Z" fill="#2B3F4A"/>
</svg>
