<svg width="60" height="60" viewBox="0 0 60 60" fill="none" xmlns="http://www.w3.org/2000/svg">
<g opacity="0.85">
<path d="M60 30C60 46.5685 46.5685 60 30 60C13.4315 60 1.0668e-06 46.5685 2.38276e-06 30C3.69872e-06 13.4315 13.4315 -4.48109e-06 30 -2.88677e-06C46.5685 -1.29245e-06 60 13.4315 60 30Z" fill="#D3A237"/>
<path d="M18.9393 28.9393C18.3536 29.5251 18.3536 30.4749 18.9393 31.0607L28.4853 40.6066C29.0711 41.1924 30.0208 41.1924 30.6066 40.6066C31.1924 40.0208 31.1924 39.0711 30.6066 38.4853L22.1213 30L30.6066 21.5147C31.1924 20.9289 31.1924 19.9792 30.6066 19.3934C30.0208 18.8076 29.0711 18.8076 28.4853 19.3934L18.9393 28.9393ZM40 28.5L20 28.5L20 31.5L40 31.5L40 28.5Z" fill="white"/>
<path d="M30 0.999997C46.0163 0.999999 59 13.9837 59 30L61 30C61 12.8792 47.1208 -1 30 -1L30 0.999997ZM1 30C1 13.9837 13.9837 0.999996 30 0.999997L30 -1C12.8792 -1 -0.999996 12.8792 -0.999998 30L1 30ZM30 59C13.9837 59 1 46.0163 1 30L-0.999998 30C-0.999999 47.1208 12.8792 61 30 61L30 59ZM30 61C47.1208 61 61 47.1208 61 30L59 30C59 46.0163 46.0163 59 30 59L30 61Z" fill="#DDE9EA"/>
</g>
</svg>
