<svg width="60" height="60" viewBox="0 0 60 60" fill="none" xmlns="http://www.w3.org/2000/svg">
<g opacity="0.85">
<path d="M-2.38276e-06 30C-1.0668e-06 46.5685 13.4315 60 30 60C46.5685 60 60 46.5685 60 30C60 13.4315 46.5685 -4.48109e-06 30 -2.88677e-06C13.4315 -1.29245e-06 -3.69872e-06 13.4315 -2.38276e-06 30Z" fill="#D3A237"/>
<path d="M41.0607 28.9393C41.6464 29.5251 41.6464 30.4749 41.0607 31.0607L31.5147 40.6066C30.9289 41.1924 29.9792 41.1924 29.3934 40.6066C28.8076 40.0208 28.8076 39.0711 29.3934 38.4853L37.8787 30L29.3934 21.5147C28.8076 20.9289 28.8076 19.9792 29.3934 19.3934C29.9792 18.8076 30.9289 18.8076 31.5147 19.3934L41.0607 28.9393ZM20 28.5L40 28.5L40 31.5L20 31.5L20 28.5Z" fill="white"/>
<path d="M30 0.999997C13.9837 0.999999 0.999996 13.9837 0.999998 30L-1 30C-1 12.8792 12.8792 -1 30 -1L30 0.999997ZM59 30C59 13.9837 46.0163 0.999996 30 0.999997L30 -1C47.1208 -1 61 12.8792 61 30L59 30ZM30 59C46.0163 59 59 46.0163 59 30L61 30C61 47.1208 47.1208 61 30 61L30 59ZM30 61C12.8792 61 -1 47.1208 -1 30L0.999998 30C0.999999 46.0163 13.9837 59 30 59L30 61Z" fill="#DDE9EA"/>
</g>
</svg>
