<svg width="90" height="90" viewBox="0 0 90 90" fill="none" xmlns="http://www.w3.org/2000/svg">
<path d="M50.6406 1.06931C49.7114 1.60396 46.1805 3.65347 42.6496 5.61386C35.0303 9.89109 16.6324 20.3168 14.3095 21.6535C13.3803 22.1881 9.75645 24.2376 6.22554 26.198L0 29.8515L0.0929186 50.0792L0.185837 70.3069L4.27425 72.3564C15.7032 78.0594 30.1985 85.3663 34.7515 87.5941L37.9108 89.198L44.9726 84.9208C48.8752 82.604 55.2865 78.7723 59.1891 76.3663C63.1846 73.9604 71.5473 68.9703 77.7728 65.2277L89.2018 58.4554L89.1089 58.5105L89.016 18.1782L87.1576 17.198C86.1355 16.6634 82.3258 14.7921 78.6091 12.9208C74.9853 11.1386 70.6181 8.91089 68.9456 8.10891C61.605 4.27723 52.9636 0 52.5919 0C52.499 0 51.5698 0.445545 50.6406 1.06931ZM70.0606 9.44555C77.6799 13.2772 82.3258 15.6832 84.9276 16.9307C86.4143 17.6436 88 18.4109 88 18.5C88 18.5891 87.0647 18.9802 86.4143 19.3366C85.7638 19.6931 83.4409 21.0297 81.3037 22.2772C77.3082 24.6832 73.8703 26.7327 65.043 31.901C60.6758 34.4852 54.729 37.9604 47.1097 42.505C45.9018 43.2178 43.393 44.7327 41.5346 45.802C39.6762 46.8713 37.9108 47.7624 37.632 47.7624C37.3533 47.7624 35.3091 46.8713 33.079 45.7129C30.849 44.5545 26.6676 42.505 23.7872 41.0792C20.9067 39.6535 17.6545 37.9604 16.3537 37.3366C15.0528 36.7129 11.3361 34.7525 7.80516 33.0594C4.36717 31.2772 1.4867 29.9406 1.39378 29.8515C1.30086 29.8515 2.5088 29.1386 3.9955 28.2475C5.4822 27.3564 7.43349 26.2871 8.36267 25.7525C9.29186 25.2178 12.9157 23.1683 16.5395 21.1188C20.0704 19.0693 23.7872 17.0198 24.7163 16.4851C25.6455 15.9505 30.9419 12.9208 36.517 9.71287C42.0921 6.50495 47.3885 3.83168 48.1318 3.29703C49.6455 2.38975 51.1951 1.57619 52.6848 0.623762L59.5608 4.0099C63.2775 5.9703 68.0164 8.37624 70.0606 9.44555ZM88.5 58C88.2212 58.2673 76.1003 65.2277 74.2419 66.297C73.5915 66.6535 70.6181 68.4357 67.5518 70.3069C64.4855 72.1782 59.9325 74.9406 57.4237 76.4555C54.9149 78.0594 49.6185 81.1782 45.8088 83.4059C41.9992 85.7228 38.1858 88 38 88C37.8142 88 38.1895 80.4654 38.1895 68.1683V48.7426L42.5567 46.2475C48.1318 43.0396 54.9149 39.0297 62.6271 34.396C72.1977 28.6931 77.9587 25.3069 83.3479 22.099L88.5 19C88.4071 29.5149 88.3203 57.6683 88.5 58Z" fill="#2B3F4A"/>
<path d="M53.0565 8.82178C52.6848 9.17822 49.6185 10.9604 46.3664 12.7426C43.1142 14.5248 39.1187 16.7525 37.4462 17.7327C35.7736 18.6238 31.0348 21.3861 26.7605 23.703C22.4863 26.1089 18.7695 28.2475 18.4908 28.5148C17.5616 29.3168 18.3979 30.297 21.1854 31.7228C22.6721 32.4356 24.3447 33.3267 24.9951 33.6832C25.6455 34.0396 28.0614 35.2871 30.3844 36.4455C36.7957 39.7426 35.7736 39.9208 48.6893 32.5247C54.5432 29.1386 62.2554 24.6832 65.7863 22.7228C71.1756 19.6931 72.1977 18.9802 72.1048 18.3564C72.0119 17.8218 69.7818 16.396 63.3704 12.8317C58.6316 10.2475 54.4503 8.10891 54.2644 8.10891C54.0786 8.10891 53.5211 8.46534 53.0565 8.82178ZM52.9636 19.6931V29L51.4769 29.9406C50.7335 30.3861 47.3885 32.2574 43.9505 34.3069C38.9329 37.2475 37.4462 37.9604 36.3311 37.9604C35.309 37.9604 33.5436 37.2475 29.7339 35.2871C26.8535 33.7723 23.3226 31.9901 21.9288 31.2772C20.2562 30.4752 19.2341 29.6733 19.2341 29.4059C19.2341 29.0495 20.535 28.1584 22.3004 27.0891C23.973 26.198 26.8535 24.5049 28.6189 23.5247C30.4773 22.4554 35.4949 19.6931 39.6762 17.2871C50.9194 11.0495 52.8707 9.91089 52.9636 10C53.1494 10.0891 52.9636 14.5 52.9636 19.6931Z" fill="#2B3F4A"/>
<path d="M17.0096 58.3507C16.7613 58.185 16.5532 57.9658 16.4006 57.7093L13.1821 52.2978C12.1442 50.5527 14.0663 48.5504 15.8523 49.5162L17.7251 50.5288C18.0437 50.7011 18.3096 50.9567 18.4943 51.2683L22.4002 57.858C22.8705 58.6514 22.6604 59.6723 21.915 60.2156C21.3092 60.6571 20.4923 60.6741 19.8687 60.2581L17.0096 58.3507Z" fill="white"/>
<path d="M25.0827 58.4476C24.2813 58.7607 23.371 58.449 22.9297 57.7104L18.8668 50.9094C18.6815 50.5994 18.5837 50.2449 18.5837 49.8837V47.9719C18.5837 45.9619 21.2161 45.2078 22.2804 46.913L25.8997 52.712C26.0979 53.0296 26.203 53.3965 26.203 53.7709V56.8071C26.203 57.5325 25.7583 58.1836 25.0827 58.4476Z" fill="white"/>
<path d="M16.2739 59.7822C16.6436 59.9867 17.097 59.7194 17.097 59.297C17.097 59.106 16.9988 58.9285 16.837 58.8271L13.2899 56.6029C12.8442 56.3234 12.2652 56.6438 12.2652 57.1698C12.2652 57.4133 12.3974 57.6375 12.6105 57.7554L16.2739 59.7822Z" fill="white"/>
<path d="M7.625 53.5C7.92436 53.6197 8.25 53.3993 8.25 53.0769V52.6404C8.25 52.3151 8.55569 52.0764 8.87127 52.1553C9.09385 52.211 9.25 52.411 9.25 52.6404V53.3973C9.25 53.9246 9.53254 54.4115 9.99037 54.6731L10.5194 54.9754C10.8166 55.1452 11 55.4612 11 55.8035V56.298C11 56.7487 10.5392 57.0525 10.125 56.875L9.84458 56.7548C9.56311 56.6342 9.25 56.8407 9.25 57.1469C9.25 57.4984 8.84871 57.699 8.56751 57.4881L8.45 57.4C8.3241 57.3056 8.25 57.1574 8.25 57V56.6127C8.25 56.2254 8.07398 55.8592 7.7716 55.6173L7.3355 55.2684C7.12344 55.0988 7 54.8419 7 54.5704V53.9231C7 53.6007 7.32564 53.3803 7.625 53.5Z" fill="white"/>
<path d="M16.273 60.826C16.796 60.5657 17.4066 60.547 17.9445 60.775L20.4514 61.8372C20.8666 62.0132 21.2101 62.3243 21.4263 62.72L22.223 64.1786C22.7346 65.1152 22.4206 66.2885 21.5096 66.8445L19.0529 68.3437C18.4212 68.7293 17.6281 68.7344 16.9914 68.357L12.9179 65.9429C11.5546 65.135 11.6277 63.138 13.0464 62.4319L16.273 60.826Z" fill="white"/>
<path d="M18.596 71.4045C18.5884 70.6729 18.9809 69.9956 19.6194 69.6384L22.3956 68.0854C23.3665 67.5422 24.594 67.8958 25.1273 68.8721L25.9583 70.3935C26.1189 70.6875 26.203 71.0172 26.203 71.3522V74.1601C26.203 74.9124 25.7808 75.6011 25.1104 75.9424L21.5506 77.7547C20.2281 78.428 18.6587 77.477 18.6433 75.993L18.596 71.4045Z" fill="white"/>
<path d="M55.5586 57.1569C55.6853 57.0732 55.7913 56.9617 55.8685 56.831L61.0592 48.0388C61.5757 47.164 60.61 46.1657 59.7185 46.6529L54.5036 49.503C54.347 49.5885 54.2162 49.7144 54.1247 49.8676L49.6429 57.3696C49.3692 57.8278 49.5036 58.4203 49.9483 58.7155L51.0181 59.4258C51.3525 59.6478 51.7874 59.6483 52.1224 59.427L55.5586 57.1569Z" fill="#2B3F4A"/>
<path d="M47.901 57.6128C48.356 57.7906 48.8729 57.6136 49.1234 57.1942L53.6583 49.6032C53.751 49.4482 53.7999 49.271 53.7999 49.0904V43.3901C53.7999 42.3868 52.4873 42.0085 51.9533 42.8578L46.334 51.7956C46.2337 51.955 46.1805 52.1395 46.1805 52.3278V56.2577C46.1805 56.6695 46.433 57.0392 46.8166 57.1891L47.901 57.6128Z" fill="#2B3F4A"/>
<path d="M56.1616 58.668C55.7717 58.8909 55.2866 58.6094 55.2866 58.1604C55.2866 57.9563 55.393 57.7669 55.5673 57.6608L59.1425 55.485C59.5703 55.2246 60.1183 55.5326 60.1183 56.0334C60.1183 56.2638 59.9949 56.4765 59.7949 56.5908L56.1616 58.668Z" fill="#2B3F4A"/>
<path d="M65.0595 51.6046C64.57 51.6808 64.125 51.3027 64.125 50.8073V50.625C64.125 50.2798 63.8452 50 63.5 50C63.1548 50 62.875 50.2798 62.875 50.625V52.0694C62.875 52.4149 62.6966 52.736 62.4033 52.9185L61.4717 53.4982C61.1783 53.6807 61 54.0017 61 54.3472V55.0904C61 55.5725 61.5007 55.8913 61.9375 55.6875L62.2318 55.5501C62.5315 55.4103 62.875 55.6291 62.875 55.9598C62.875 56.355 63.3465 56.5599 63.6355 56.2902L63.9265 56.0186C64.0531 55.9004 64.125 55.735 64.125 55.5617V55.0119C64.125 54.6233 64.35 54.27 64.7021 54.1057L65.4229 53.7693C65.775 53.605 66 53.2517 66 52.8631V52.4071C66 51.9085 65.5521 51.528 65.0595 51.6046Z" fill="#2B3F4A"/>
<path d="M55.7837 59.5428C55.5266 59.418 55.2284 59.4091 54.9643 59.5185L51.6219 60.9026C51.408 60.9912 51.2315 61.1512 51.1224 61.3554L49.779 63.8707C49.5316 64.3339 49.6847 64.9096 50.1294 65.1887L53.929 67.5738C54.2487 67.7744 54.6541 67.778 54.9773 67.583L61.1434 63.8623C61.8225 63.4525 61.777 62.453 61.0635 62.1065L55.7837 59.5428Z" fill="#2B3F4A"/>
<path d="M53.7937 69.661C53.7975 69.2909 53.5965 68.9489 53.2712 68.7721L49.0926 66.5013C48.6116 66.2399 48.0098 66.4139 47.7425 66.8917L46.3079 69.4556C46.2244 69.6048 46.1805 69.7729 46.1805 69.9439V73.7038C46.1805 74.08 46.3916 74.4243 46.7269 74.595L52.2698 77.4169C52.9311 77.7535 53.7158 77.278 53.7234 76.5359L53.7937 69.661Z" fill="#2B3F4A"/>
</svg>
