<svg width="80" height="80" viewBox="0 0 80 80" fill="none" xmlns="http://www.w3.org/2000/svg">
<path d="M47.2495 8.26091C46.9238 8.57395 44.2372 10.1392 41.3877 11.7044C38.5382 13.2696 35.0374 15.2261 33.5719 16.087C32.1064 16.8696 27.9543 19.2957 24.2092 21.3304C20.4642 23.4435 17.2076 25.3217 16.9634 25.5565C16.1492 26.2609 16.8819 27.1217 19.3244 28.3739C20.627 29 22.0925 29.7826 22.6624 30.0956C23.2323 30.4087 25.349 31.5043 27.3844 32.5217C33.002 35.4174 32.1064 35.5739 43.423 29.0783C48.5521 26.1043 55.3095 22.1913 58.4033 20.4696C63.1253 17.8087 64.0209 17.1826 63.9394 16.6348C63.858 16.1652 61.9041 14.9131 56.2865 11.7826C52.1344 9.51308 48.4707 7.63483 48.3079 7.63483C48.1451 7.63483 47.6566 7.94787 47.2495 8.26091ZM47.1681 17.8087V25.9826L45.8655 26.8087C45.2141 27.2 42.2832 28.8435 39.2709 30.6435C34.8745 33.2261 33.5719 33.8522 32.5949 33.8522C31.6994 33.8522 30.1525 33.2261 26.8145 31.5043C24.2907 30.1739 21.1969 28.6087 19.9757 27.9826C18.5102 27.2783 17.6147 26.5739 17.6147 26.3391C17.6147 26.0261 18.7545 25.2435 20.3014 24.3043C21.7668 23.5217 24.2907 22.0348 25.8375 21.1739C27.4658 20.2348 31.8622 17.8087 35.5258 15.6957C45.377 10.2174 47.0867 9.21743 47.1681 9.29569C47.3309 9.37395 47.1681 13.2479 47.1681 17.8087Z" fill="#2B3F4A"/>
<path fill-rule="evenodd" clip-rule="evenodd" d="M45.1327 1.45225C45.0283 1.51249 44.8863 1.59461 44.7117 1.69566C43.5249 2.38233 40.828 3.94267 38.1311 5.44355C31.4551 9.20006 15.3351 18.3566 13.2997 19.5305C12.4856 20 9.31041 21.8 6.21666 23.5218L0.761902 26.7305L0.843316 44.4956L0.924731 62.2608L4.50696 64.0608C8.65288 66.1345 13.2593 68.4496 17.5174 70.5896C23.5442 73.6186 28.8732 76.2969 31.2109 77.4434L33.979 78.8521L40.1665 75.0956C43.5859 73.0608 49.2034 69.6956 52.6229 67.5825C54.3207 66.5577 56.9187 64.999 59.7665 63.2904C62.7906 61.4761 66.0965 59.4927 68.9057 57.7999L78.8383 51.9005L78.7569 16.4783L77.1286 15.6174C76.6625 15.373 75.5348 14.8107 74.1013 14.0958L74.0996 14.095L74.0978 14.0941C72.7777 13.4358 71.1988 12.6483 69.6385 11.8609C68.0637 11.0846 66.3287 10.2121 64.801 9.44378L64.8004 9.44347C63.2481 8.66281 61.9099 7.98981 61.1714 7.63485C54.7396 4.26964 47.1681 0.513123 46.8424 0.513123C46.761 0.513123 45.9469 0.904426 45.1327 1.45225ZM62.1483 8.80876C64.8511 10.1712 67.1268 11.3283 69.0296 12.2958C71.8268 13.7181 73.8179 14.7306 75.1746 15.3827C76.4773 16.0087 77.8667 16.6826 77.8667 16.7609C77.8667 16.8073 77.5784 16.947 77.2249 17.1183C76.9824 17.2359 76.7092 17.3683 76.4773 17.4957C75.9074 17.8087 73.872 18.9826 71.9995 20.0783C68.4986 22.1913 65.4863 23.9913 57.752 28.5304C56.5399 29.2494 55.1889 30.0468 53.6964 30.9278L53.696 30.928C50.477 32.8281 46.6 35.1166 42.039 37.8435C41.7119 38.037 41.2758 38.2978 40.7814 38.5935L40.7804 38.5942C39.6753 39.2551 38.2788 40.0905 37.1541 40.7391C35.5258 41.6782 33.979 42.4608 33.7347 42.4608C33.4905 42.4608 31.6994 41.6782 29.7454 40.6609C28.1889 39.8504 25.5474 38.5433 23.2614 37.4121L23.2613 37.4121L23.2609 37.4119C22.6774 37.1231 22.1172 36.8459 21.604 36.5913C20.3294 35.9589 18.9718 35.2667 17.7933 34.6658C16.6381 34.0768 15.655 33.5755 15.0908 33.3044C14.6606 33.0975 13.9286 32.7235 13.0177 32.2579L13.0177 32.2579L13.0165 32.2572L13.0161 32.2571L13.0161 32.257L13.016 32.257C11.514 31.4893 9.52584 30.4731 7.60071 29.5478C5.76822 28.5957 4.11651 27.7883 3.08543 27.2843C2.42158 26.9598 2.015 26.7611 1.98312 26.7305C1.91385 26.7305 2.66961 26.2773 3.69889 25.6601L3.70387 25.6571L3.70553 25.6561L3.70801 25.6546L3.71077 25.653C3.88769 25.5469 4.07261 25.436 4.26272 25.3218C5.14478 24.7918 6.21349 24.1901 7.06441 23.711C7.47013 23.4826 7.82634 23.2821 8.08919 23.1305C8.90334 22.6609 12.0785 20.8609 15.2537 19.0609C17.3946 17.8152 19.6136 16.5696 21.0471 15.7649L21.0475 15.7646L21.0481 15.7643C21.6855 15.4065 22.1675 15.1359 22.4181 14.9913C22.6538 14.8554 23.2103 14.5358 24.0006 14.0818L24.0033 14.0803L24.0048 14.0794C25.9448 12.9651 29.2897 11.0438 32.7577 9.04354C35.4792 7.47391 38.1249 6.05004 40.0471 5.0155L40.0472 5.01544C41.5752 4.19307 42.6461 3.61672 42.9345 3.40877C43.4619 3.09196 43.9941 2.78817 44.5261 2.48455C45.3322 2.0245 46.1375 1.56485 46.9238 1.06095L52.9485 4.03485C54.9728 5.10508 57.3431 6.3265 59.2773 7.32318L59.2779 7.32351L59.2788 7.32395L59.2821 7.32565L59.2829 7.3261C60.458 7.9316 61.4717 8.45396 62.1483 8.80876ZM78.3048 51.4521C78.0795 51.6687 69.0293 56.8848 66.3459 58.4313L65.812 58.7391C65.2421 59.0521 62.6368 60.6173 59.9501 62.2608C57.2635 63.9043 53.2742 66.3304 51.076 67.6608C48.8778 69.0695 44.2372 71.8086 40.8992 73.7651C37.5612 75.7999 34.22 77.7999 34.0571 77.7999C33.9823 77.7999 34.0114 76.4005 34.0647 73.8384V73.8383V73.838C34.1273 70.8288 34.2232 66.2157 34.2232 60.3825V43.3217L38.0497 41.1304C42.9345 38.313 48.8778 34.7913 55.6352 30.7217C60.6147 27.7475 64.4172 25.4908 67.6734 23.5583C69.9008 22.2364 71.8726 21.0662 73.7906 19.9218L78.3048 17.2C78.2234 26.4348 78.1473 51.1608 78.3048 51.4521ZM15.712 51.7911C15.4638 51.6252 15.256 51.4059 15.1037 51.1492L12.7638 47.2056C11.7277 45.4595 13.6518 43.4592 15.4368 44.4267L16.2324 44.8579C16.5509 45.0305 16.8165 45.2864 17.0009 45.5983L20.3908 51.331C20.8019 52.0262 20.618 52.9199 19.9659 53.3963C19.4339 53.785 18.7159 53.7999 18.1683 53.4337L15.712 51.7911ZM20.8528 51.198C21.2392 51.8463 22.0379 52.1199 22.7406 51.8447C23.3318 51.6132 23.7207 51.0431 23.7207 50.4082V47.8065C23.7207 47.4328 23.6161 47.0666 23.4185 46.7494L20.7425 42.4517C19.6795 40.7445 17.0448 41.4977 17.0448 43.5089V44.2579C17.0448 44.6184 17.1422 44.9721 17.3268 45.2818L20.8528 51.198ZM15.0192 53.0164C15.3437 53.1964 15.7421 52.9617 15.7421 52.5907C15.7421 52.4233 15.6561 52.2676 15.5144 52.1785L12.4084 50.2264C12.0173 49.9806 11.5086 50.2617 11.5086 50.7237C11.5086 50.9371 11.6244 51.1337 11.8111 51.2373L15.0192 53.0164ZM7.99047 47.1295C7.99047 47.412 7.70505 47.6051 7.44285 47.5C7.18066 47.3948 6.89524 47.5879 6.89524 47.8704V48.4407C6.89524 48.6788 7.00333 48.904 7.1891 49.053L7.57071 49.359C7.83607 49.5718 7.99047 49.8935 7.99047 50.2337V50.5747C7.99047 50.7124 8.05523 50.8421 8.16532 50.9249L8.26765 51.0018C8.51426 51.1872 8.86666 51.0113 8.86666 50.7027C8.86666 50.434 9.14159 50.2528 9.38853 50.3589L9.63333 50.4641C9.99611 50.6199 10.4 50.3539 10.4 49.959V49.5223C10.4 49.2221 10.2393 48.9449 9.97881 48.7957L9.5163 48.5308C9.11452 48.3006 8.86666 47.873 8.86666 47.41V46.744C8.86666 46.5431 8.72997 46.3679 8.53506 46.319C8.2585 46.2497 7.99047 46.4589 7.99047 46.744V47.1295ZM14.9166 53.9857C15.4404 53.7244 16.0525 53.7057 16.5913 53.9345L18.6019 54.7885C19.017 54.9649 19.3604 55.2763 19.5762 55.6724L20.1238 56.6774C20.6338 57.6131 20.3204 58.7843 19.4113 59.3404L17.5848 60.4577C16.9522 60.8447 16.1573 60.8499 15.5197 60.4711L12.4625 58.655C11.1016 57.8466 11.1746 55.8525 12.5911 55.1459L14.9166 53.9857ZM18.0787 61.6028C17.4412 61.9603 17.0494 62.637 17.057 63.3679L17.0929 66.8585C17.1082 68.3434 18.6792 69.2943 20.0019 68.6194L22.6298 67.2784C23.2993 66.9367 23.7207 66.2485 23.7207 65.4969V63.2399C23.7207 62.9056 23.6369 62.5765 23.4769 62.2829L22.8983 61.221C22.3652 60.2428 21.1356 59.8887 20.1639 60.4335L18.0787 61.6028Z" fill="#2B3F4A"/>
<path d="M49.4181 50.7274C49.5448 50.6436 49.6506 50.532 49.7277 50.4011L54.0362 43.0861C54.5517 42.2108 53.585 41.2135 52.6941 41.7015L48.547 43.9734C48.3905 44.0591 48.2598 44.1852 48.1684 44.3385L44.3173 50.8001C44.0444 51.2579 44.1786 51.8493 44.6223 52.1445L45.3943 52.6583C45.7292 52.8812 46.165 52.8817 46.5004 52.6596L49.4181 50.7274Z" fill="#2B3F4A"/>
<path d="M42.6335 51.0734C43.089 51.2518 43.6067 51.0744 43.8572 50.6542L47.7598 44.1061C47.8521 43.9513 47.9008 43.7744 47.9008 43.5941V39.0502C47.9008 38.0463 46.5871 37.6684 46.0537 38.5188L41.3777 45.9737C41.2778 46.1329 41.2249 46.3171 41.2249 46.505V49.8394C41.2249 50.2509 41.477 50.6204 41.8602 50.7705L42.6335 51.0734Z" fill="#2B3F4A"/>
<path d="M49.972 52.0378C49.6298 52.2339 49.2035 51.9868 49.2035 51.5924C49.2035 51.4135 49.2967 51.2474 49.4495 51.1542L52.58 49.2445C52.9556 49.0154 53.437 49.2857 53.437 49.7256C53.437 49.9275 53.3289 50.1141 53.1537 50.2145L49.972 52.0378Z" fill="#2B3F4A"/>
<path d="M57.7674 45.8352C57.3375 45.9022 56.9476 45.5701 56.9476 45.135V44.9737C56.9476 44.6713 56.7025 44.4261 56.4 44.4261C56.0976 44.4261 55.8524 44.6713 55.8524 44.9737V46.1767C55.8524 46.5218 55.6744 46.8425 55.3816 47.0252L54.6632 47.4732C54.381 47.6492 54.2095 47.9583 54.2095 48.2908V48.8986C54.2095 49.3209 54.6484 49.6001 55.031 49.4212L55.2879 49.301C55.5508 49.178 55.8524 49.3699 55.8524 49.6601C55.8524 50.007 56.2664 50.1866 56.5197 49.9496L56.7741 49.7116C56.8848 49.608 56.9476 49.4632 56.9476 49.3117V48.9047C56.9476 48.5165 57.1723 48.1634 57.5239 47.9989L58.0177 47.7679C58.3672 47.6044 58.5905 47.2535 58.5905 46.8677V46.5382C58.5905 46.1014 58.199 45.7679 57.7674 45.8352Z" fill="#2B3F4A"/>
<path d="M49.6899 52.8319C49.4323 52.7065 49.1334 52.6976 48.8688 52.8074L46.0334 53.9844C45.8195 54.0732 45.6431 54.2334 45.5342 54.4378L44.4305 56.5093C44.1839 56.972 44.3366 57.5467 44.7804 57.8259L47.9485 59.8192C48.2686 60.0206 48.675 60.0242 48.9986 59.8285L54.1446 56.716C54.8225 56.306 54.7771 55.3079 54.0647 54.9612L49.6899 52.8319Z" fill="#2B3F4A"/>
<path d="M47.8947 61.766C47.8985 61.3963 47.6979 61.0546 47.3731 60.8777L43.8851 58.9777C43.4036 58.7154 42.8008 58.8897 42.5336 59.3685L41.3517 61.4858C41.2685 61.6347 41.2249 61.8025 41.2249 61.9732V65.1701C41.2249 65.546 41.4356 65.89 41.7703 66.0609L46.3814 68.4139C47.0428 68.7514 47.8283 68.2758 47.8359 67.5334L47.8947 61.766Z" fill="#2B3F4A"/>
</svg>
